<mxfile host="app.diagrams.net" modified="2023-12-29T03:27:59.640Z" agent="Mozilla/5.0 (Windows NT 10.0; Win64; x64) AppleWebKit/537.36 (KHTML, like Gecko) Chrome/120.0.0.0 Safari/537.36" etag="hNkhPL_wmthN_zX9jkMX" version="22.1.15" type="device">
  <diagram id="C5RBs43oDa-KdzZeNtuy" name="Page-1">
    <mxGraphModel dx="1646" dy="426" grid="1" gridSize="10" guides="1" tooltips="1" connect="1" arrows="1" fold="1" page="1" pageScale="1" pageWidth="827" pageHeight="1169" math="0" shadow="0">
      <root>
        <mxCell id="WIyWlLk6GJQsqaUBKTNV-0" />
        <mxCell id="WIyWlLk6GJQsqaUBKTNV-1" parent="WIyWlLk6GJQsqaUBKTNV-0" />
        <mxCell id="WWriRaiVIZiZ4C2qJKqK-0" value="[회원가입 FlowChart]" style="text;html=1;align=center;verticalAlign=middle;resizable=0;points=[];autosize=1;strokeColor=none;fillColor=none;" vertex="1" parent="WIyWlLk6GJQsqaUBKTNV-1">
          <mxGeometry x="10" y="78" width="140" height="30" as="geometry" />
        </mxCell>
        <mxCell id="WWriRaiVIZiZ4C2qJKqK-3" value="" style="edgeStyle=orthogonalEdgeStyle;rounded=0;orthogonalLoop=1;jettySize=auto;html=1;" edge="1" parent="WIyWlLk6GJQsqaUBKTNV-1" source="WWriRaiVIZiZ4C2qJKqK-1" target="WWriRaiVIZiZ4C2qJKqK-2">
          <mxGeometry relative="1" as="geometry" />
        </mxCell>
        <mxCell id="WWriRaiVIZiZ4C2qJKqK-1" value="시작" style="strokeWidth=2;html=1;shape=mxgraph.flowchart.terminator;whiteSpace=wrap;" vertex="1" parent="WIyWlLk6GJQsqaUBKTNV-1">
          <mxGeometry x="200" y="108" width="100" height="42" as="geometry" />
        </mxCell>
        <mxCell id="WWriRaiVIZiZ4C2qJKqK-5" value="" style="edgeStyle=orthogonalEdgeStyle;rounded=0;orthogonalLoop=1;jettySize=auto;html=1;" edge="1" parent="WIyWlLk6GJQsqaUBKTNV-1" source="WWriRaiVIZiZ4C2qJKqK-2" target="WWriRaiVIZiZ4C2qJKqK-4">
          <mxGeometry relative="1" as="geometry" />
        </mxCell>
        <mxCell id="WWriRaiVIZiZ4C2qJKqK-2" value="ID 입력" style="shape=parallelogram;perimeter=parallelogramPerimeter;whiteSpace=wrap;html=1;fixedSize=1;strokeWidth=2;" vertex="1" parent="WIyWlLk6GJQsqaUBKTNV-1">
          <mxGeometry x="190" y="180" width="120" height="30" as="geometry" />
        </mxCell>
        <mxCell id="WWriRaiVIZiZ4C2qJKqK-7" value="" style="edgeStyle=orthogonalEdgeStyle;rounded=0;orthogonalLoop=1;jettySize=auto;html=1;" edge="1" parent="WIyWlLk6GJQsqaUBKTNV-1" source="WWriRaiVIZiZ4C2qJKqK-4" target="WWriRaiVIZiZ4C2qJKqK-6">
          <mxGeometry relative="1" as="geometry" />
        </mxCell>
        <mxCell id="WWriRaiVIZiZ4C2qJKqK-4" value="중복버튼 클릭" style="shape=parallelogram;perimeter=parallelogramPerimeter;whiteSpace=wrap;html=1;fixedSize=1;strokeWidth=2;" vertex="1" parent="WIyWlLk6GJQsqaUBKTNV-1">
          <mxGeometry x="190" y="230" width="120" height="30" as="geometry" />
        </mxCell>
        <mxCell id="WWriRaiVIZiZ4C2qJKqK-9" value="" style="edgeStyle=orthogonalEdgeStyle;rounded=0;orthogonalLoop=1;jettySize=auto;html=1;" edge="1" parent="WIyWlLk6GJQsqaUBKTNV-1" source="WWriRaiVIZiZ4C2qJKqK-6" target="WWriRaiVIZiZ4C2qJKqK-8">
          <mxGeometry relative="1" as="geometry" />
        </mxCell>
        <mxCell id="WWriRaiVIZiZ4C2qJKqK-27" value="" style="edgeStyle=orthogonalEdgeStyle;rounded=0;orthogonalLoop=1;jettySize=auto;html=1;" edge="1" parent="WIyWlLk6GJQsqaUBKTNV-1" source="WWriRaiVIZiZ4C2qJKqK-6" target="WWriRaiVIZiZ4C2qJKqK-17">
          <mxGeometry relative="1" as="geometry" />
        </mxCell>
        <mxCell id="WWriRaiVIZiZ4C2qJKqK-6" value="ID중복 확인" style="whiteSpace=wrap;html=1;strokeWidth=2;" vertex="1" parent="WIyWlLk6GJQsqaUBKTNV-1">
          <mxGeometry x="190" y="290" width="120" height="40" as="geometry" />
        </mxCell>
        <mxCell id="WWriRaiVIZiZ4C2qJKqK-11" value="" style="edgeStyle=orthogonalEdgeStyle;rounded=0;orthogonalLoop=1;jettySize=auto;html=1;" edge="1" parent="WIyWlLk6GJQsqaUBKTNV-1" source="WWriRaiVIZiZ4C2qJKqK-8" target="WWriRaiVIZiZ4C2qJKqK-10">
          <mxGeometry relative="1" as="geometry" />
        </mxCell>
        <mxCell id="WWriRaiVIZiZ4C2qJKqK-8" value="회원Tbl" style="strokeWidth=2;html=1;shape=mxgraph.flowchart.database;whiteSpace=wrap;" vertex="1" parent="WIyWlLk6GJQsqaUBKTNV-1">
          <mxGeometry x="370" y="280" width="60" height="60" as="geometry" />
        </mxCell>
        <mxCell id="WWriRaiVIZiZ4C2qJKqK-18" value="" style="edgeStyle=orthogonalEdgeStyle;rounded=0;orthogonalLoop=1;jettySize=auto;html=1;" edge="1" parent="WIyWlLk6GJQsqaUBKTNV-1" source="WWriRaiVIZiZ4C2qJKqK-10" target="WWriRaiVIZiZ4C2qJKqK-17">
          <mxGeometry relative="1" as="geometry" />
        </mxCell>
        <mxCell id="WWriRaiVIZiZ4C2qJKqK-10" value="ID존재?" style="rhombus;whiteSpace=wrap;html=1;strokeWidth=2;" vertex="1" parent="WIyWlLk6GJQsqaUBKTNV-1">
          <mxGeometry x="360" y="370" width="80" height="60" as="geometry" />
        </mxCell>
        <mxCell id="WWriRaiVIZiZ4C2qJKqK-12" value="" style="endArrow=classic;html=1;rounded=0;" edge="1" parent="WIyWlLk6GJQsqaUBKTNV-1">
          <mxGeometry width="50" height="50" relative="1" as="geometry">
            <mxPoint x="440" y="400" as="sourcePoint" />
            <mxPoint x="250" y="160" as="targetPoint" />
            <Array as="points">
              <mxPoint x="440" y="160" />
            </Array>
          </mxGeometry>
        </mxCell>
        <mxCell id="WWriRaiVIZiZ4C2qJKqK-13" value="YES" style="text;html=1;align=center;verticalAlign=middle;resizable=0;points=[];autosize=1;strokeColor=none;fillColor=none;" vertex="1" parent="WIyWlLk6GJQsqaUBKTNV-1">
          <mxGeometry x="430" y="350" width="50" height="30" as="geometry" />
        </mxCell>
        <mxCell id="WWriRaiVIZiZ4C2qJKqK-14" value="NO" style="text;html=1;align=center;verticalAlign=middle;resizable=0;points=[];autosize=1;strokeColor=none;fillColor=none;" vertex="1" parent="WIyWlLk6GJQsqaUBKTNV-1">
          <mxGeometry x="320" y="410" width="40" height="30" as="geometry" />
        </mxCell>
        <mxCell id="WWriRaiVIZiZ4C2qJKqK-15" value="MESSAGE" style="swimlane;whiteSpace=wrap;html=1;" vertex="1" parent="WIyWlLk6GJQsqaUBKTNV-1">
          <mxGeometry x="480" y="335" width="170" height="60" as="geometry" />
        </mxCell>
        <mxCell id="WWriRaiVIZiZ4C2qJKqK-16" value="동일한 ID가 존재합니다." style="text;html=1;align=center;verticalAlign=middle;resizable=0;points=[];autosize=1;strokeColor=none;fillColor=none;" vertex="1" parent="WWriRaiVIZiZ4C2qJKqK-15">
          <mxGeometry x="10" y="30" width="150" height="30" as="geometry" />
        </mxCell>
        <mxCell id="WWriRaiVIZiZ4C2qJKqK-22" value="" style="edgeStyle=orthogonalEdgeStyle;rounded=0;orthogonalLoop=1;jettySize=auto;html=1;" edge="1" parent="WIyWlLk6GJQsqaUBKTNV-1" source="WWriRaiVIZiZ4C2qJKqK-17" target="WWriRaiVIZiZ4C2qJKqK-21">
          <mxGeometry relative="1" as="geometry" />
        </mxCell>
        <mxCell id="WWriRaiVIZiZ4C2qJKqK-17" value="PW 입력" style="shape=parallelogram;perimeter=parallelogramPerimeter;whiteSpace=wrap;html=1;fixedSize=1;strokeWidth=2;" vertex="1" parent="WIyWlLk6GJQsqaUBKTNV-1">
          <mxGeometry x="190" y="385" width="120" height="30" as="geometry" />
        </mxCell>
        <mxCell id="WWriRaiVIZiZ4C2qJKqK-19" value="MESSAGE" style="swimlane;whiteSpace=wrap;html=1;" vertex="1" parent="WIyWlLk6GJQsqaUBKTNV-1">
          <mxGeometry x="329" y="440" width="201" height="60" as="geometry" />
        </mxCell>
        <mxCell id="WWriRaiVIZiZ4C2qJKqK-20" value="회원가입 가능한 ID입니다" style="text;html=1;align=center;verticalAlign=middle;resizable=0;points=[];autosize=1;strokeColor=none;fillColor=none;" vertex="1" parent="WWriRaiVIZiZ4C2qJKqK-19">
          <mxGeometry x="6" y="25" width="160" height="30" as="geometry" />
        </mxCell>
        <mxCell id="WWriRaiVIZiZ4C2qJKqK-24" value="" style="edgeStyle=orthogonalEdgeStyle;rounded=0;orthogonalLoop=1;jettySize=auto;html=1;" edge="1" parent="WIyWlLk6GJQsqaUBKTNV-1" source="WWriRaiVIZiZ4C2qJKqK-21" target="WWriRaiVIZiZ4C2qJKqK-23">
          <mxGeometry relative="1" as="geometry" />
        </mxCell>
        <mxCell id="WWriRaiVIZiZ4C2qJKqK-26" value="" style="edgeStyle=orthogonalEdgeStyle;rounded=0;orthogonalLoop=1;jettySize=auto;html=1;" edge="1" parent="WIyWlLk6GJQsqaUBKTNV-1" source="WWriRaiVIZiZ4C2qJKqK-21" target="WWriRaiVIZiZ4C2qJKqK-25">
          <mxGeometry relative="1" as="geometry" />
        </mxCell>
        <mxCell id="WWriRaiVIZiZ4C2qJKqK-21" value="PW 암호화정책 &lt;br&gt;유효성 검사" style="whiteSpace=wrap;html=1;strokeWidth=2;" vertex="1" parent="WIyWlLk6GJQsqaUBKTNV-1">
          <mxGeometry x="190" y="520" width="120" height="50" as="geometry" />
        </mxCell>
        <mxCell id="WWriRaiVIZiZ4C2qJKqK-23" value="정책을&lt;br&gt;만족하는지" style="rhombus;whiteSpace=wrap;html=1;strokeWidth=2;" vertex="1" parent="WIyWlLk6GJQsqaUBKTNV-1">
          <mxGeometry x="30" y="505" width="80" height="80" as="geometry" />
        </mxCell>
        <mxCell id="WWriRaiVIZiZ4C2qJKqK-25" value="PW 다시 입력" style="shape=parallelogram;perimeter=parallelogramPerimeter;whiteSpace=wrap;html=1;fixedSize=1;strokeWidth=2;" vertex="1" parent="WIyWlLk6GJQsqaUBKTNV-1">
          <mxGeometry x="190" y="620" width="120" height="40" as="geometry" />
        </mxCell>
        <mxCell id="WWriRaiVIZiZ4C2qJKqK-28" value="" style="endArrow=classic;html=1;rounded=0;exitX=0.5;exitY=0;exitDx=0;exitDy=0;" edge="1" parent="WIyWlLk6GJQsqaUBKTNV-1" source="WWriRaiVIZiZ4C2qJKqK-23">
          <mxGeometry width="50" height="50" relative="1" as="geometry">
            <mxPoint x="290" y="480" as="sourcePoint" />
            <mxPoint x="250" y="350" as="targetPoint" />
            <Array as="points">
              <mxPoint x="70" y="350" />
            </Array>
          </mxGeometry>
        </mxCell>
        <mxCell id="WWriRaiVIZiZ4C2qJKqK-29" value="NO" style="text;html=1;align=center;verticalAlign=middle;resizable=0;points=[];autosize=1;strokeColor=none;fillColor=none;" vertex="1" parent="WIyWlLk6GJQsqaUBKTNV-1">
          <mxGeometry x="70" y="470" width="40" height="30" as="geometry" />
        </mxCell>
        <mxCell id="WWriRaiVIZiZ4C2qJKqK-30" value="" style="endArrow=classic;html=1;rounded=0;exitX=0.5;exitY=1;exitDx=0;exitDy=0;entryX=0;entryY=0.5;entryDx=0;entryDy=0;" edge="1" parent="WIyWlLk6GJQsqaUBKTNV-1" source="WWriRaiVIZiZ4C2qJKqK-23" target="WWriRaiVIZiZ4C2qJKqK-25">
          <mxGeometry width="50" height="50" relative="1" as="geometry">
            <mxPoint x="290" y="540" as="sourcePoint" />
            <mxPoint x="340" y="490" as="targetPoint" />
            <Array as="points">
              <mxPoint x="70" y="640" />
            </Array>
          </mxGeometry>
        </mxCell>
        <mxCell id="WWriRaiVIZiZ4C2qJKqK-31" value="MESSAGE" style="swimlane;whiteSpace=wrap;html=1;" vertex="1" parent="WIyWlLk6GJQsqaUBKTNV-1">
          <mxGeometry x="-440" y="410" width="486" height="60" as="geometry" />
        </mxCell>
        <mxCell id="WWriRaiVIZiZ4C2qJKqK-32" value="패스워드는 8-16사이,영문대문자,소문자,특수문자,숫자 중 3개이상을 포함해야 합니다." style="text;html=1;align=center;verticalAlign=middle;resizable=0;points=[];autosize=1;strokeColor=none;fillColor=none;" vertex="1" parent="WWriRaiVIZiZ4C2qJKqK-31">
          <mxGeometry y="25" width="480" height="30" as="geometry" />
        </mxCell>
      </root>
    </mxGraphModel>
  </diagram>
</mxfile>
